/* XPM */
static char *program_icon[] = {
/* columns rows colors chars-per-pixel */
"64 64 240 2 ",
"   c #010101",
".  c #060609",
"X  c #09060A",
"o  c #060A0B",
"O  c #0B0B0D",
"+  c #0A0502",
"@  c #0C0D11",
"#  c #040A10",
"$  c #110D12",
"%  c #140A15",
"&  c #0D1214",
"*  c #0B1618",
"=  c #131315",
"-  c #151519",
";  c #1A151B",
":  c #141A1B",
">  c #1B1B1D",
",  c #181617",
"<  c #100A08",
"1  c #250801",
"2  c #2B1008",
"3  c #241A1B",
"4  c #361005",
"5  c #18211F",
"6  c #342111",
"7  c #0F1A26",
"8  c #161B20",
"9  c #1D1D22",
"0  c #1C1A26",
"q  c #221D23",
"w  c #261C27",
"e  c #1C2224",
"r  c #192428",
"t  c #1B2737",
"y  c #222224",
"u  c #24242B",
"i  c #29242A",
"p  c #242A2A",
"a  c #2B2A2D",
"s  c #282427",
"d  c #35282C",
"f  c #2B2D32",
"g  c #262D33",
"h  c #322E34",
"j  c #2A3438",
"k  c #34353A",
"l  c #471806",
"z  c #571B08",
"x  c #582802",
"c  c #572516",
"v  c #482614",
"b  c #742903",
"n  c #7D3606",
"m  c #703113",
"M  c #50342B",
"N  c #683221",
"B  c #49423A",
"V  c #644920",
"C  c #16294F",
"Z  c #3A3942",
"A  c #1C3666",
"S  c #1D3C73",
"D  c #403F46",
"F  c #304567",
"G  c #585B44",
"H  c #49526D",
"J  c #882905",
"K  c #8B3A08",
"L  c #983805",
"P  c #972D13",
"I  c #BF2702",
"U  c #AF3704",
"Y  c #C22D03",
"T  c #C43403",
"R  c #C63A02",
"E  c #C93D03",
"W  c #C93D0A",
"Q  c #D13F06",
"!  c #964912",
"~  c #A74708",
"^  c #B94806",
"/  c #A94818",
"(  c #B95211",
")  c #BF650F",
"_  c #83452B",
"`  c #AB4B2A",
"'  c #A06E25",
"]  c #CD4303",
"[  c #CA4607",
"{  c #D14604",
"}  c #D44B04",
"|  c #D94E05",
" . c #D54B0A",
".. c #D94E0A",
"X. c #D44509",
"o. c #C95808",
"O. c #DC5306",
"+. c #D3520A",
"@. c #DD5309",
"#. c #D75606",
"$. c #D95414",
"%. c #E15606",
"&. c #E45A06",
"*. c #E95D06",
"=. c #E1560A",
"-. c #E45B0A",
";. c #E95D0B",
":. c #E45B11",
">. c #E95D12",
",. c #E14F0F",
"<. c #DC660A",
"1. c #D96318",
"2. c #C87212",
"3. c #CB6B0D",
"4. c #ED6206",
"5. c #E4620C",
"6. c #EC630B",
"7. c #ED6A0C",
"8. c #E56508",
"9. c #F16506",
"0. c #F36B07",
"q. c #F2650B",
"w. c #F46B0C",
"e. c #F96D0C",
"r. c #FB6F06",
"t. c #F5720D",
"y. c #FA740D",
"u. c #FB7A0C",
"i. c #F6790D",
"p. c #ED6411",
"a. c #EC6C13",
"s. c #E66314",
"d. c #F36611",
"f. c #F46C12",
"g. c #FA6E12",
"h. c #F56C19",
"j. c #EC7415",
"k. c #E97318",
"l. c #F57213",
"z. c #FA7413",
"x. c #F57A14",
"c. c #FA7B13",
"v. c #F3731B",
"b. c #F9761B",
"n. c #F47B1C",
"m. c #FA7C1B",
"M. c #ED700F",
"N. c #D47625",
"B. c #FB7C22",
"V. c #F77C24",
"C. c #F4742B",
"Z. c #FB820B",
"A. c #FB8415",
"S. c #FC8A13",
"D. c #F7841D",
"F. c #FB831B",
"G. c #FB8B1B",
"H. c #F38518",
"J. c #FB9215",
"K. c #FB931C",
"L. c #FC991A",
"P. c #FB8422",
"I. c #FB8B24",
"U. c #FB8B2A",
"Y. c #F68429",
"T. c #FB9423",
"R. c #FB9B24",
"E. c #FB932B",
"W. c #FC9B2C",
"Q. c #FA8734",
"!. c #FB9333",
"~. c #FB9C33",
"^. c #FB9A3B",
"/. c #EC8529",
"(. c #FBA22B",
"). c #FCA92A",
"_. c #FCA334",
"`. c #FCAC34",
"'. c #FBA43B",
"]. c #FCAC3B",
"[. c #F6AF3E",
"{. c #FCB23D",
"}. c #FCB738",
"|. c #FCB12C",
" X c #D4851D",
".X c #FBC03F",
"XX c #FC9945",
"oX c #FBAC43",
"OX c #FBA746",
"+X c #FCB343",
"@X c #FBB24B",
"#X c #FCBB47",
"$X c #FAB857",
"%X c #F4A74F",
"&X c #FCAD64",
"*X c #FCC64B",
"=X c #FCC745",
"-X c #FCD14C",
";X c #FCC353",
":X c #FCCA59",
">X c #FCD35C",
",X c #FCD758",
"<X c #FBE25B",
"1X c #FCD464",
"2X c #FDDB6B",
"3X c #FDD969",
"4X c #FCDB78",
"5X c #FCCB6C",
"6X c #FDE868",
"7X c #FCED73",
"8X c #FDEB7B",
"9X c #FCE575",
"0X c #FDF57A",
"qX c #FCF16C",
"wX c #848998",
"eX c #FDEA89",
"rX c #FDF484",
"tX c #FDF88A",
"yX c #FDEE97",
"uX c #FDFD94",
"iX c #FDF59B",
"pX c #FEFD9D",
"aX c #FDF091",
"sX c #FEFEA3",
"dX c #FDFCAC",
"fX c #FEF3A8",
"gX c #FEFDB3",
"hX c #FDFEBC",
"jX c #FDF6B9",
"kX c #FDCB90",
"lX c #FDFFC3",
"zX c #FEFFCC",
"xX c #FEF4C2",
"cX c #FEFFD4",
"vX c #FEFFDB",
"bX c #FDF5D6",
"nX c #FEFFE4",
"mX c #FEFFEC",
"MX c #FEFFF3",
"NX c #FFFFFD",
/* pixels */
"  & =     .   @ @ * O   . r = ,   .   =   >       & , 5 +   >     : =   *   O , = $ k - O , .   q @   = o & 5   &   O a : @ . h ",
"O . = . , = & 3 . O   :   X . X : . = . > = y 3 X o ,   p g $   :   X o ; o o :     X q , o 5   X p o ; -   p >     >   = = r O ",
"e   . . u , r X $ . = . X - - q     . M ! ~ ~ )  X X2.2.) ' ' V @   O , p h +   .   $ = , X X O       = u h     o $ , q Z e - O ",
". * j   & > e $     : ; & , , + _ ~ #.6.8.x.J.}.(.J.y.c.4.M.t.H.x.3.' 4 & > O & =     > 8 O > . > = . X g - . > -         - X   ",
"      = ; h   > y   . > i x / #.} *.-.} | <.7.7.x.*.7.a.7.6.6.0.6.;.4.7.3.V 3       8 r > f - , $ $ - * . r O     O >   > & . - ",
"@ &     0 u e - : > 3 l L O.| } T *.} ] O.;.6.-.} ;.-.} O.{ ] } #.5.&.O.-.w.<.K     O     .   * ; > : - .     & O .   y O & : = ",
".       O .   - o 3 L { O.@.{ R R R R E X.| 4.O.X.{ #.} O.E ] ] ] { =.O.6.4.O.4.o.x O   y   O & 9 $   . O O +     = 5     > : > ",
"  O   - . g   g N R O.} E T E { E T ] R } | ;.6.{ O.-.%.} ] ] O.&.{ #.&.O.-.4.O.*.8.J   s . g   a e . & . .   -   e u @ O   9 > ",
"  #   q     y J ] { &.E E ] R T R ] ] [ O.0.-.q.q.6.6.7.&.*.] ] ] } ] } O.O.#.%.%.6.t.o.4 = & a     >     i > O o =   s >   $   ",
"@   .   > + ` ] ] @.] Y E E I Y ] } ] I 8.6.{ +.e.p.y.u.7.| ] ] ] | E #.-.4.] ] X.O.6.7.j.M O o $ = $ X q o $   e ,   . X s $   ",
"w >   : 1 ^ { O.5.R E T E R R I [ ] } ] } ] E ] 0.w.t.6.4.} O.} %.} } *.4.#.O.] &.} &.O.t.j.x >   > :     O @ 9 p @       O   r ",
"      ; ^ &.4.%.O.O.O.] ] I Y I I T ] E ] { &.%.;.0.@.O.O.&.-.%.&.0.O.@.4.4.] ] { O.] ] *.S.l.x p   >   O   k   O O   ; - O $ p ",
"a r @ U ] *.O.*.9.O.} { T I R ] X.} | ] ..6.y.6.e.*. .O.-.4.0.6.-.*.0.-.O.W ] ] T E I R [ M.t.7.v 8 d i   . O   0 O             ",
"a . J T ] } ] | O.%.*.{ I R R T } *.%.O.0.6.a.-.t.-.*.7.6.0.6.6. .-.q.q.6.*.X.T R ] ] T ] } t.6.N.; % %     > X O q     e > O   ",
"O z U X.E { E { &.| &.R T E ] ] O.6.q.6.*.-.6.=.d.0.*.6.6.%.-.6.%.w.6.l.y.*.*.;.} O.{ R T ] @.7.7./ . 0 a   @ X y ,   . u $ @ - ",
"1 U } *.] { T { } } Y I R &.&.] } -.6.0.w.l.l.-.t.u.-.0.t.q.q.;.@.9.d.y.6.6.} X.%.{ { E E I } 6.O.@.m . @ = y O q 8 q ; p o :   ",
"P E 5.-.*.{ { 4.%.{ R T R { } } | O.;.a.F.G.d.6.;.6.d.x.-.-.9.e.w.q.w.l.l.q.} O.] O.] E X.] f.y.7.;.#.: $ O   = 3   Z #   ; o   ",
"} X.5.W @.-.;.-.%.] ] { { ] +.;.O.] @.n.T.P.n.G.w.6.w.w.0.*.w.w.w.0.*.p.y.l.-.w.{ } O. .;.*.x.T.A.l.0.K $   a   9   * > o   ,   ",
"a.6.5.O.l.l.-.w.O.} X...O.-.*.6.6.O.p.(.E.(.(.G.p.q.*.u.q.O.9.y.@.{ ] O.l.A.w.x.@.-.t.6.6.w.f.n.f.F.F.-.2 5 O y @ . , > & ,   o ",
"W.F.:.d.b.a.f.-.} } 6.y.q.-.d.I.a...a.W.P.R.K.t.;.q.-.*.-.| -.;.-.O.0.q.l.b.d.;.@.}  .x.n.z.l.w.O.6.G.d.L h , 5   O       q &   ",
"x.R.w.6.6.b.j.O.{ =.c.y.6.] @.w.-.| 6.h.P.G.:.[ $.c.t.y.*.@.*...O.-.q.d.0.f.c.s.@. .{ a.`.{.W.W.-.-.F.x.k.  :   . & X   + . q e ",
"K.D.;.+.=.{ E ] | q.u.q.&.] } 8.;.O.p.R.).H. .W -.J.S.y.w.=.*.6.O.] ..p.z.6.c.A.6.#.a./.U.8X2X>X$Xa.l.E.c.m > . - - y     ; & > ",
"c.x.&.6.{ ] E ] *.y.q.&.} T E | } O.t.G.).G.:. .6.m.S.u.z.f.l.y.@.q.c.w.c.l.x.g.l.n.-XtXaXhXeXdXlX_.x.D.y.o.. - p B j t +   @ h ",
"d.p.l.c.{ { { } 6.6.%.} R Y [ [ { @.z.G.K.S.p.:.>.d.J.A.w.y.y.e.*.5.6.-.d.f.c.w.G.}.rXhXNXnXdXlXvX1X[.f.n.a.  O C F F F C   : j ",
"D.K.m.l.| ] { { O.{ ] ] Y ] { { ] 6.l.l.S.u.;.6.y.w.S.e.$.@.g.y.:. .O.@.;.z.A.f.h.W.3XhXNXMXnXvXpX4X#Xm.p.x.m   A F H G A X 8 $ ",
").W.D.a.%.E ] ] R T [ I R { { ] W f.u.d.z.:.=.>.c.c.A.c.y.g.c.A.m.l.w.e.l.A.K.F.I.6XtXmXNXNXNXNXjX:XG.F.6.v.L X A S H F C @     ",
"G.v.>.6.{ { O.] [ I I I { E ] { -.z.A.u.e.;.0.y.A.K.G.G.S.Z.c.G.R.I.f.f.F.R.F.G.*XrXhXnXvXNXNXNXfX2XI.W.x.V.( q 7 F wXF #   $   ",
"z.6.6.O.} { O.{ { [ I R } E ] ] 6.6.6.u.q.6.r.y.u.S.F.z.S.S.g.F.T.G.w.F.J.R.R.F.-XtXsXvXnXNXNXNXxX3XW.F./.;.o.        @ .     . ",
"f.@.-.=.w.*.{ R ] ] I { @.{ E | q.q...q.6.6.y.z.s.A.S.y.e.Z.q.r.g.e.q.A.I.h.A.F.*X7XgXMXNXNXNXNXMX*XB.P./.&.O.= &   & X . > ; o ",
"f.n.m.h.'.-.{ ] R { R ] O.&.E | q.e.>.-.-.>.J.J.w.g.Z.y.r.y.9.e.e.d.g.c.z.e.g.c.P.6XcXvXnXNXNXmXhX$X{.F.j.%.6.. :   ,   = = O   ",
"{._.E.'.$Xd.| X.} O.{ ] E ] E -.b.m.T.*.=.6.A.A.c.S.J.J.S.z.y.A.R.b.z.F.T.(._.`.I.#XtXvXnXNXlXmXvX4X{.P.e.d.f.  ,   .   $ - &   ",
"oXE.@XXX^.d.*.=.O.l.} { { { { z.T._.I.s.l.b.g.A.S.S.L.c.L.J.y.m.(.T.{.E.`.{.<X}.{.6XtXsXgXlXmXNXMXaX].'.b.f.g.@ % r =   o @ -   ",
"1XOXU.$XV.B.z.*.>.P.>.=.O.{ =.h.!.P.g.m.T.G.c.y.e.e.y.z.L.|.z.y.R.W.oX].].(.E.E._.iXtXpX0XtXnXNXMX2X'.>XoXa.v.* ; O a u   O   : ",
"fX$X^.OXXXQ.E.>.;.U.Y.b.&.| -.m.'.m.z.g.W.F.G.e.r.u.S.c.L.}.G.e.y.A.P.:X9X].E.}.W.sXpXcXzXgXpXiXeX'.F.+X$X~.%X-   @ y O q     . ",
"cX4X$XQ.V.V.XXB.V.B.B.>.@.| p.U.~.b.F.m.z.y.y.d.9.y.z.y.G.|.K.g.;.>.Y.OX>X*XT.~.E.rX3XgXmXMXgX8X;XW.'.P.oXY.k.  o O . o q X O y ",
"nXyX5Xd.d.C.&Xg.!.$X$X@X6...-.I.~.P.b.E.F.e.e.e.d.r.y.F.T.=X(.b.e.p.:X:X4X:XF.z._.0X2XgXsXlXlXzXlX3XuX3X1X^.1.& @           , r ",
"bXfX:X$.9.h.C.B.h.!.XXQ.w.*.q.V.n.d.d.m.G.e.e.u.K.J.`.-X<X6X=X_.W.E.;X^.9X>Xm.z.z.3XlXgX0XlXpXsXdX,X9X3X#X@X( - = q > > @     ; ",
"jXgX$X;.&.6.b.Y.,.d.-. .| &.=.X.Q  .h.W.F.c.G.`.=X=X,X6X-X6X,XqX8X7X;X~.~.W.g.A.q.~.eXuX,XiXhXpXuX{.{./.s.C.P   @ =     i   ; & ",
"MXbXkX6.[ =.q.d.*.%.} ] } | { { ] x.~.T.(.T.#XrXiXgXpXrX=X6XqX;XeX9X#XF.y.d.e.c.G.a.(.#X_.rXdXqX*X_.W.f.| X.z e   3   ;   >   = ",
"NXeX4Xz.-.C.XXV.9.} { E ] { [ ] X.s.].I.E.}.rXlXmXmXzXsX6X*X_._.'.#X'.m.f.y.q.m.b.;.e.G.#X,X0X6X-X_.T.-.X.R u q O :   :   > 8 @ ",
"cX5XOXg.E.~.XXOX0.%.} R R { %.O.6.=.w.U.`.{.fXlXgX7X>X7X0X=X~.T.z.F.g.q.-.q.q.y.g.6.g.W.}.`.`..XW.R.f.a.{ P . h O :   u   %     ",
"fX9X$Xg.S.z.h.m.*.} R R Q } q.;.~.f.b.d.E.8XuXpXuX;XE.].-X_.W.I.d.z.c.d...;.u.y.u.0.S.R.).}.b.A.=XR.-.O.{ b . - & X . . . O X X ",
"@X$XXXb.;.%.4.%.{ E Y R { | *.;.V.z.6.g.V.aXeX>X6X@XW.>XqX_.d.q.;.*.:.d.q.w.A.A.e.q.&.;.T.(.y.z.R.x.;.O.] ;   O . . .     r . $ ",
"!.Q.!.e.*.{ { E R { } E { { 6.*. .5.q.v.c.U.*X;X2XeX#X>X'.s.| Q Q =.*.q.F.z.R.).z.y.-.} x.G.0.6.l.-.-.=.L . , a : G *   , f O O ",
"U.U.v.g.*...| E Y ] { } } | -.6.] } =.f.m.B.>XxXhXmX4XB.a.;.,. .>.b.B.V._.I.(.c.K.p.0.} 6.7.6.6.%.O.a. .4 r ; o   a   -     = 5 ",
"C.q.q.z.q.d.v.| R T O.O.%.| *.-.@.-.V.v.b.^.7XiX2XsXrXOXh.w.P.V.'.#X>XoX].W.W.d.F.w.t. .@.w.6.*.O.#.-./ . * . , . >   &   O   @ ",
"o.7.9.h.f.V.E.@X-.E O.6.-.O.=.6.v.P.U.P.m.{.:X].'.>X@X:XP.z.;X#XB.h.^.~.h.p.;.c.(.6.q.O.@.&.6.%. .@.<.2   , y     X o ; s . O   ",
"v a.c.m.z.I.b.'.a.| #.p.d.6.-.>.v.f.I.P.Y.~.V.l.B.+X~.E.m.m.oXU.=.,.m.F.q.t.f.G.D.-.t.0.7.6.t.%.] 6.K @ @     . e > . = p   q & ",
"  ! d.Y.z.m.g.b.v.O.{ W | @.| a.^.h.F.].E.P.E.p.E.1X!.>.b.m.c.;.@.&.6.w.;.b.K.S.t.&.O.%.0.y.t.&.-.^ X . q & & o O e = = * 0   u ",
":   ( 6.q.m.q.m.D.p.n.=.} {  .%.;.P.~.h.g.P.].OX'.{.f.p._.E.m.;.-.-.O.4.q.e.S.c.0.;.7.4.r.u.6.| o.d O > 9 >   $     @ $   y   > ",
"@ u 2 #.%.*.a.V.h.l.F.z.n.p.6.*.6.^.^.P.U.OX9XrX9X+X>.6.l.g.w.-.z.c.c.e.e.e.y.0.y.u.6.*.*.t.-.1.N   @ X   - ,   p > O &   : :   ",
"o > & l +.*.m._.*.z.z.G.F.P.I.q.6.f.'.E.v.d.P.P.P.v.a.6.p.b.9.6.y.z.q.9.y.0.4.*.Z.4.O.] &.6.7.n : D O   e . 7 - y q =     $   O ",
"    X   v +./.~.q.x.e.b.w.-.z.-.-.m.>.%.E E k.@.| | 1.m.f.s.O. .*.-.*.=.0.4.9.q.%.X.{ O.w.j.n 5 ; .   > u . y @ ,     y   - % = ",
"o e . X = 4 [ q.w.A.6.w.l.6.z.A.6.;.f.6.X.E W E R ] ] O.E { %.q.-.w.4.O.9.0.0.-.{ { 8.&.1.b - #   $   =   @   y , . @ - O O O f ",
"    Z O .   2 ( f.z.G.-.6.%.%.q.e.z.c.z.6.0.k.j.} } E T R ] 7.4.6.} *.7.0.*.&.O.#.-.O.o.c   , . p   O   O . : p : a o & X a o & ",
"@           & ; ! 7.i.l.&.&.O.&.0.S.y.q.y.w.q.q.-.O.E R { *.6.6.y.&.0.y.u.y.4.=.6.7.` 1   # k   > & q X & j X : O O   w 9     O ",
"O r ; X - a   = . l ^ 6.4.4.*.6.5.i.y.t.w.u.0.6.&.%.*.] { 6.0.7.w.*.;.u.u.7.%.*.+.n q X   . % o   . s   = s o     = = a y & >   ",
"s 3 3 =     :   O @ . b [ 4.O.O.4.&.t.t.*.t.7.&.6.0.q.6.6.w.t.r.*.4.&.-.4.5.8.L + .   ; .   & $ . O o - e >   O   * =   : O O   ",
"o o .   O   ; = O   $ u X m ^ @.O.7.t.r.q.0.6.{ O.i.w.t.i.u.i.4.t.4.9.q.8.! 3 < , -   * + > O 3 a   e   o   . o u   @   y h .   ",
"O = 8 X -       q 0     O o , c ~ o.M.6.9.%.-.O.{ %.%.5.w.Z.9.4.4.<./ N # X $ u &   -   X     q o a = &     h - .   @ ,     @ - ",
"  & i = 8 , . = & f i O $ > u   X   s n ~ ^ o.<.<.+.o.$.1.o.^ ! l     p , & O   j +   o , ; > &   s = - . -     . ; &     > r   ",
"y   0 +   : &   8   > = a     O .   >   e   $ :   @ &     e p & X   . w > s >   y     O           . 9 O   , h   >   $ h = &   > ",
"  = e   > 9 @ e . > 9 O @ o   . - &   o .   - X + o . * r >   X   > & O O   = .   .   . = . @   ;   8 e o       3   > % = o #   ",
"  . e       $ - $ j y   O i : .       O   = . : O   . . r   y f $ :   a       = & + .   r   ; -   f .       . ;   =   , = > k . "
};
