/* XPM */
static char *program_icon[] = {
/* columns rows colors chars-per-pixel */
"64 64 242 2 ",
"   c #000000",
".  c #090607",
"X  c #030817",
"o  c #191817",
"O  c #1C0B01",
"+  c #2A0B00",
"@  c #2C1602",
"#  c #3A1401",
"$  c #2B2E14",
"%  c #0A1A38",
"&  c #040D21",
"*  c #172637",
"=  c #2B2A29",
"-  c #373632",
";  c #582603",
":  c #4A2E0A",
">  c #713305",
",  c #401B01",
"<  c #2E4314",
"1  c #36461C",
"2  c #3C531B",
"3  c #3B4A26",
"4  c #394538",
"5  c #324831",
"6  c #434B29",
"7  c #485727",
"8  c #464736",
"9  c #4B5536",
"0  c #545A39",
"q  c #504830",
"w  c #54642D",
"e  c #5B6737",
"r  c #4F6826",
"t  c #6B6D39",
"y  c #7A531A",
"u  c #10264D",
"i  c #162A4A",
"p  c #122A53",
"a  c #142D58",
"s  c #122951",
"d  c #2D3B4E",
"f  c #1A3668",
"g  c #1D3C73",
"h  c #223E6C",
"j  c #283F6B",
"k  c #223E73",
"l  c #0C1E40",
"z  c #2D4352",
"x  c #374B55",
"c  c #384C4E",
"v  c #294169",
"b  c #39496A",
"n  c #264074",
"m  c #2A4273",
"M  c #284379",
"N  c #374B77",
"B  c #39516B",
"V  c #494D48",
"C  c #555949",
"Z  c #485959",
"A  c #545452",
"S  c #5D5D5B",
"D  c #585A56",
"F  c #4C4F50",
"G  c #625C46",
"H  c #625F5F",
"J  c #5C6343",
"K  c #596847",
"L  c #5D6951",
"P  c #4E6254",
"I  c #676848",
"U  c #6A7144",
"Y  c #666859",
"T  c #776C56",
"R  c #777458",
"E  c #73704F",
"W  c #455368",
"Q  c #585B66",
"!  c #475376",
"~  c #5B6366",
"^  c #57627E",
"/  c #696B65",
"(  c #6C6C69",
")  c #656765",
"_  c #766E69",
"`  c #6D706A",
"'  c #767567",
"]  c #747471",
"[  c #7A7A76",
"{  c #7D7B78",
"}  c #6A6E79",
"|  c #8E3F05",
" . c #A53B05",
".. c #93500F",
"X. c #B75608",
"o. c #AE5307",
"O. c #BB6616",
"+. c #A5600B",
"@. c #866423",
"#. c #8F5F22",
"$. c #C25708",
"%. c #DB5507",
"&. c #D14904",
"*. c #E45A08",
"=. c #D7650E",
"-. c #D67017",
";. c #ED630B",
":. c #EB6509",
">. c #F46B0B",
",. c #F56908",
"<. c #F6730C",
"1. c #FA740A",
"2. c #FB7C0D",
"3. c #F97407",
"4. c #F56C11",
"5. c #FA7D12",
"6. c #F57613",
"7. c #E87015",
"8. c #CD7C26",
"9. c #867A5A",
"0. c #857A62",
"q. c #7C807E",
"w. c #B48635",
"e. c #FC830E",
"r. c #FC8C0C",
"t. c #FB8413",
"y. c #FC8C14",
"u. c #FB8C1A",
"i. c #F5871A",
"p. c #FC9215",
"a. c #FD941A",
"s. c #FD9C1C",
"d. c #FD9B17",
"f. c #E0821E",
"g. c #FDA21E",
"h. c #D28A2F",
"j. c #FA9524",
"k. c #FD9C22",
"l. c #F99B28",
"z. c #F6952E",
"x. c #FDA423",
"c. c #FDAA25",
"v. c #FDA52A",
"b. c #FDAC2B",
"n. c #FDB22D",
"m. c #FCB126",
"M. c #FDAD33",
"N. c #FCA836",
"B. c #FDB434",
"V. c #FDB53B",
"C. c #FDB93C",
"Z. c #FDB836",
"A. c #8A8364",
"S. c #968769",
"D. c #84857A",
"F. c #988A77",
"G. c #9C9176",
"H. c #A7957A",
"J. c #A28E71",
"K. c #8E8549",
"L. c #FDB642",
"P. c #FDBB44",
"I. c #FDBD4B",
"U. c #FDBE52",
"Y. c #FDB750",
"T. c #FCAA4F",
"R. c #DEA744",
"E. c #FDC24A",
"W. c #FDC153",
"Q. c #FCC35A",
"!. c #FDCD59",
"~. c #FCCA66",
"^. c #FDD36B",
"/. c #FCD67A",
"(. c #FDCE74",
"). c #566486",
"_. c #5C6E95",
"`. c #6C7A98",
"'. c #6E758B",
"]. c #586A93",
"[. c #807B88",
"{. c #7A849B",
"}. c #7E8183",
"|. c #7684A2",
" X c #8C8B89",
".X c #888684",
"XX c #97938C",
"oX c #999693",
"OX c #9C9B98",
"+X c #908E90",
"@X c #A89A85",
"#X c #A29E9C",
"$X c #A59E94",
"%X c #B39E84",
"&X c #B9A488",
"*X c #A4A19C",
"=X c #A8A49F",
"-X c #BAA994",
";X c #B9AB9C",
":X c #BFB49F",
">X c #8893A9",
",X c #9299A6",
"<X c #8593B0",
"1X c #96A2B1",
"2X c #A5A3A2",
"3X c #A9A6A3",
"4X c #ADA9A5",
"5X c #AEABA9",
"6X c #B1ADAA",
"7X c #B7AFA7",
"8X c #B7B5B5",
"9X c #ADAFB3",
"0X c #C6B299",
"qX c #D3B99C",
"wX c #C3AF8F",
"eX c #D6BDA1",
"rX c #C4B7A5",
"tX c #FCDA84",
"yX c #EEDB98",
"uX c #FDE79B",
"iX c #FDEC8A",
"pX c #D8C1A6",
"aX c #D4C4AD",
"sX c #E3CDB0",
"dX c #E5D9B7",
"fX c #FAEAAC",
"gX c #B6BCC6",
"hX c #A9B1C2",
"jX c #9FABC0",
"kX c #BAC3D4",
"lX c #BDC1C7",
"zX c #C5CBD6",
"xX c #CBD2DD",
"cX c #CECFD2",
"vX c #FDF9C6",
"bX c #D7DCE5",
"nX c #CDD3E0",
"mX c #DDE1E9",
"MX c #E4E6EA",
"NX c #E7EBF0",
"BX c #EAEDF1",
"VX c #FDFBE5",
/* pixels */
"g.n.b.y.t.u.i.X.;                                                                                                               ",
"C.C.B.b.V.B.k.e.<.$.;                                                                 X * - 1 7 7 7 q $                         ",
"Z.n.g.g.c.c.Z.x.t.y.2.X.#                                                       X u f g c 2 4 4 c w E 9.A.G o                   ",
"P.b.d.x.b.n.n.x.y.b.a.2.7.o.                                                X p f g h d 5 5 4 x 4 - 4 0 E 9.T 8                 ",
"V.C.b.v.s.g.B.C.b.B.v.2.e.2.=.;                                           % f g g h v d L Y q.! g k ~ V 3 9 C 9 f X             ",
"b.M.x.x.g.p.b.I.P.x.c.c.p.5.y.i.#.                                      u g g g g g j b ).^ >X{.).>X>X}.Y 4 3 8 b f &           ",
"s.y.s.x.b.v.x.P.I.C.n.c.x.a.a.p.a.O..                                 p g g g g g g g g g k 1X1X).9XgX1X XP 8 C Q g f X         ",
"C.V.V.C.C.C.I.I.P.I.B.c.n.C.s.s.t.y.-.@                             u g g g g g g g ).8X,XN ).,X8XgXgXgX9X+XD Y / g g f         ",
"P.I.I.P.Z.P.I.I.V.B.P.n.C.M.s.y.<.e.5.%.#                         % g g g g g g g g n 8XMX8X^ M M 9XxXnXzX<X~ L I '.g g l       ",
"L.P.P.Z.c.v.Z.P.U.I.I.V.W.^.U.x.n.y.e.5.7.#                     X f g g g g g g g g g ,XcXMXMXrXhX9XxXmXbXjX`.Q 6 / N g g .     ",
"a.s.B.Z.n.b.P.B.x.L.P.I.I.I.Q.I.P.V.x.x.a.f.@                   u g g g g g g g g h n >XcXbXMXMXMXnXmXNXNXbXkX<XI 9 L m f u     ",
"x.Z.P.n.n.Z.P.C.b.s.c.b.P.I.P.I.Q.I.b.p.m.u.8..               X f g g g g g g g g '.W N '.cXbXmXbXmXBXNXBXBXbXgX[ J C n g f     ",
"C.I.I.Z.Z.l.W.tXW.B.P.I.W.V.g.v.U.I.B.n.M.x.6.w.              d ).k g g g k g g g m g g g N {.gXkXbXBXNXNXNXmXnX<X! k g k g X   ",
"B.V.B.n.C.P.~.fXuXE.P.Q.W.n.Z.P.Q.B.b.M.P.B.k.N.@.            H.-Xm Q j g b Z v g g g g g g n <XnXmXNXNXNXNXNXbXkX,X! g g g u   ",
"Z.n.V.W.n.b.P.P.(.~.U.V.I.P.I.I.P.x.m.c.M.B.v.a.R.:         . 0X0X0.0.W W e B g g g g g g M >X<XnXbXmXMXNXbXnXxX`.D.( g k g u   ",
"P.Z.W.I.n.Z.I.C.W.I.Q.W.I.C.Z.n.P.P.b.x.M.M.u.L.b.8.        - qXqX0.0.I t W g B ) v n g g M ).].jXkXbXbXmXbXkX9X! ' D.m g g p   ",
"B.C.C.V.C.B.Z.Z.I.P.I.U.V.V.b.v.P.P.V.b.L.L.k.M.B.M.t       G sXpX@Xk L r e Z z 8 0 / Y k g g k `.<XhXkXxXkXjX! ~ E R n g g a   ",
"s.M.U.Q.~.Q.Q.Q.Q.P.W.U.Q.W.V.U.Q.P.C.P.L.C.C.P.B.B.R..     E qXeX;Xb Z K e x z h z 4 7 N g g k k M |.|.<X]._.+XK K ] ^ g g a   ",
"a.B.W.Q.U.P.L.L.W.Q.I.I.P.P.^.fXvXtXL.V.I.n.V.P.E.E.W.#.    T pXqX0Xm D w e K x z - 3 c b g `.>X_.k |.lX'.}.'.R R q./ ` g g s   ",
"C.C.B.C.U.P.n.x.C.P.P.M.v.b.U.~.L.V.x.M.P.C.P.C.v.E.E.-.    G pXqXXXb Z e w e r 3 5 - d W W ).).`.,XcXgXzXOXXXE D.D.m B g g l   ",
"P.U.P.v.B.C.x.p.c.C.B.s.g.Z.P.n.c.c.m.g.x.C.W.B.s.b.C.j.>   9 aXpX+Xk D w e e w < 2 < < 2 C ' { 2XgXlX8X=XJ Y R Y Q g g g g &   ",
"U.W.W.b.x.Z.x.p.x.P.P.b.M.P.C.C.Z.g.c.m.s.C.B.b.x.c.b.N.X.  $ aXeXeX! W K L e r r 2 < < $ 9 I Y R D.OXR I 0 9 6 7 B n g g f     ",
"Q.(.!.Z.P.C.n.s.b.W.Q.P.Q.Q.V.b.c.n.b.g.g.s.b.v.b.V.C.l.7.+ . H.eXdX[.Q L b t r r r r 2 < 1 6 0 0 8 J 0 9 6 3 9 C 9 z g g u     ",
"I.U.tXuX/.U.n.c.M.P.P.P.I.I.I.L.B.c.C.n.n.n.c.d.B.Z.n.l.6.>   0 eXpX;X! J.W P q.U K e 2 1 6 4 3 6 3 3 6 6 0 I 0 6 2 z v g X     ",
"I.P.P.I.Q.V.x.v.I.I.P.B.Z.B.P.Q.U.C.n.B.W.P.C.v.x.k.p.v.j. .  $ wXsXeX[.F.0.Y 9.A.E t e e w 7 3 3 1 1 $ 8 Y 0 2 r 7 v v u       ",
"n.n.b.Z.V.C.P.U.I.Z.C.E.Z.s.k.I.I.Z.v.v.V.v.L.P.P.s.s.k.i.=.    T qXXX-XpX&XA.S q.G.A.R E I U e 7 7 2 1 4 0 t t e x v f X       ",
"M.n.n.v.Z.L.U.W.b.B.U.~.P.c.x.C.C.c.n.B.Z.Z.C.c.Z.s.g.x.u.7.O   $ 9.[.&XpXwXS.! :X:X@XH.9.R 9.t w 0 G I 0 E S.A.0 v g %         ",
"P.C.Z.C.L.I.U.c.a.k.b.P.I.W.C.C.E.m.g.m.n.P.P.Z.C.x.k.v.j.N.>   . G 0.0XeXrX@XF.&XwX0XH.J.S.9.E A.G.J.0.H.&XS./ B v u           ",
"P.P.tXuX~.U.V.s.d.s.x.Z.P.U.Z.n.P.n.c.g.B.W.L.x.B.s.B.a.x.M.|     . 0.@XsX6X@X-X&X&XH.S.A.A.A.S.H.F.H.%X&XF.9.W g p             ",
"^.~.(.tX~.P.c.s.d.m.M.U.P.B.B.b.Z.x.B.v.b.C.P.x.x.B.B.y.y.y.o.    . . _ $XeX$X@X;X&XH.G.*X-X:X0XrX;X@X%XS.E U B u               ",
"tXfXW.Z.V.E.c.x.c.V.V.I.Q.I.P.P.V.v.n.P.M.V.V.s.s.v.V.s.p.t.o.        X p N '.! .X;X&XG.XX0XrX:X-X@X9.I r e c %                 ",
"tXfX~.n.B.Z.b.V.!.W.I.Z.M.C.P.P.x.v.g.P.M.M.v.y.p.M.M.B.k.s.X.            % f k g [ H.H.S.G.@XG.' R e J F i X                   ",
"U./.iXW.V.x.s.B.Q.P.I.V.P.M.x.B.v.x.s.n.x.B.V.c.u.C.V.V.b.x.o.                % f f _ S.R _ / Z I 0 7 * X                       ",
"I.Y.L.V.C.v.x.V.L.B.P.U.~.I.b.B.C.N.L.n.j.j.C.b.p.p.u.M.b.v.X.                .   . % * i p u u * X                             ",
"g.a.s.c.C.n.s.m.x.x.c.L.U.P.Z.P.W.P.W.Z.a.i.v.b.s.u.a.g.x.u.+.                                                                  ",
"P.x.p.s.b.B.c.g.b.Z.s.V.U.P.n.x.c.Z.B.n.V.B.Z.b.p.c.V.v.B.t...                                                                  ",
"E.I.n.g.s.s.x.P.U.C.c.Z.I.P.b.g.b.I.P.x.P.P.P.C.x.c.L.x.j.j.>                                                                   ",
"Z.C.b.Z.M.b.Y.(.I.b.b.v.B.W.P.Z.B.~.C.a.x.P.P.V.p.v.P.a.x.j.O                                                                   ",
"Z.B.C.C.U.^.uXtXV.n.n.C.C.I.W.I.P.W.V.x.s.V.Z.k.y.P.V.l.V.f.                                                                    ",
"P.v.k.x.L.~.U.U.V.b.Z.C.P.b.c.c.v.I.P.b.x.b.n.x.x.I.V.u.B.O.                                                                    ",
"C.n.g.n.I.I.P.I.L.U.M.x.n.b.x.s.N.~.P.Z.b.b.c.g.V.P.V.v.l.@.                            = - o                                   ",
"I.W.W.C.I.I.V.P.I.~.W.c.b.P.u.a.P.P.I.C.s.s.c.n.B.L.V.U.z.@                       = ) .XoX=X3XoX] o                             ",
"I.Q.I.V.x.B.C.W.B.M.U.C.n.b.r.g.C.I.P.M.g.s.B.B.s.P.C.^.h.                      - F F D ) { *X#X3X3XA                           ",
"P.C.P.c.s.g.P.W.k.v.L.V.x.s.s.a.a.L.M.c.x.s.t.s.s.P.Z.fXy .                   - A D A F A ` XX#X2X3X6XA                         ",
"W.x.k.g.g.c.n.n.x.C.Z.s.y.5.x.s.b.N.b.B.a.s.k.g.n.!.fXyX                    = ) S ) A F A ( XXOX4X2X6X6X=                       ",
"P.v.B.P.I.P.B.n.x.V.I.Z.c.p.p.C.E.Z.B.V.b.x.n.g.C.iXvXK.                    A ( D S ) S Y _ XX*X#X=X6X8X+X                      ",
"v.Z.b.N.I.P.n.c.B.P.v.x.x.y.t.s.p.a.P.k.c.C.v.u.^.fXdX                      ] S A D .X) [  XOX3X$X*X6X8X8X-                     ",
"x.c.s.v.V.W.C.n.C.P.b.u.p.e.4.e.5.k.B.p.a.V.s.v.iXVXt                     . ( D F A .X]  X#X3X3X$X*X4X4X8X(                     ",
"m.y.p.B.Z.b.s.k.B.P.n.x.6.;.6.2.y.t.6.r.u.k.k.^.vXwX                      o ( S A A [ '  X3X3X3X*X=X4X5X6X[.                    ",
"b.v.s.p.y.g.x.a.a.x.C.a.4.s.r.e.t.,.5.2.s.u.u.iXfX:                         ] ( Y / [ [ +X2X3X#X*X3X=X6X8X X                    ",
"t.M.P.B.b.s.p.a.M.C.V.a.e.y.1.e.,.t.u.r.1.5.T.yX@.                          S ) { .X` '.OX#XOX#X*X3X5X4X6X[                     ",
"5.x.B.I.n.g.c.V.C.N.y.2.2.4.;.3.3.p.2.3.*.>.T.O.                            - A '.0._ .XoX#X#X#X=X3X4X6X5XD                     ",
"k.x.c.C.s.p.t.s.b.p.1.3.e.<.:.*.:.3.r.;.%.6.=..                             . V / D.` [  X$XoXOX4X3X6X6X#X                      ",
"p.s.m.g.p.p.y.r.e.3.,.,.,.3.*.&.:.,.*.%.,.=.+                                 = 0.'.{ D.#X3X#X#X4X5X4X4XH                       ",
"s.p.p.p.p.a.s.p.3.,.,.>.3.*.&.&.*.*.,.:.%.#                                     A oX+XoX#XoX2X6X8X6X6X{                         ",
"s.y.d.p.g.Z.n.p.;.,.2.<.,.*.&.*.%.*.<.%.+                                         = { XXoXoXXX8X8X6X_                           ",
"s.s.x.x.b.b.g.<.3.1.,.*.&.*.*.>.6.5.$.+                                               4 _ [. X X] o                             ",
"s.x.x.x.b.x.5.,.3.,.%.%.*.3.t.5.6.X..                                                                                           ",
"p.c.p.p.s.r.4.1.3.,.;.;.;.i.a.u...                                                                                              ",
"y.r.1.<.1.2.5.5.>.*.;.;.4.a.-.;                                                                                                 ",
"p.d.t.5.5.u.a.u.v.6.>.4.;...                                                                                                    ",
"y.t.7.>.;.6.u.j.6.4.6.O.,                                                                                                       ",
"<.2.3.,.*.;.;.*.4.$.>                                                                                                           ",
">.;.,.*.%.*.*.o.;                                                                                                               "
};
