/* XPM */
static char *program_icon[] = {
/* columns rows colors chars-per-pixel */
"64 64 238 2 ",
"   c #000000",
".  c #070708",
"X  c #160600",
"o  c #020717",
"O  c #191A1B",
"+  c #141414",
"@  c #11110A",
"#  c #240C01",
"$  c #301702",
"%  c #1E270C",
"&  c #372713",
"*  c #040E22",
"=  c #07142A",
"-  c #0A1B38",
";  c #2A2827",
":  c #383838",
">  c #3F3D29",
",  c #1A2633",
"<  c #461E03",
"1  c #4E2805",
"2  c #703102",
"3  c #423B2D",
"4  c #2E4218",
"5  c #35451B",
"6  c #3B521B",
"7  c #3D4A26",
"8  c #394538",
"9  c #364B2B",
"0  c #4B4D1C",
"q  c #754E16",
"w  c #424C28",
"e  c #49562B",
"r  c #444937",
"t  c #4A5435",
"y  c #555938",
"u  c #525336",
"i  c #4C6426",
"p  c #54632D",
"a  c #5A6637",
"s  c #59712C",
"d  c #636A3C",
"f  c #676F36",
"g  c #60573F",
"h  c #0C1F41",
"j  c #0E2347",
"k  c #12274A",
"l  c #132B56",
"z  c #2D3F57",
"x  c #1A3769",
"c  c #1D3C73",
"v  c #233E69",
"b  c #213E73",
"n  c #334654",
"m  c #354A4E",
"M  c #294269",
"N  c #384969",
"B  c #294274",
"V  c #364975",
"C  c #3B526C",
"Z  c #4D4D4C",
"A  c #454645",
"S  c #50514E",
"D  c #585B43",
"F  c #4A5959",
"G  c #545452",
"H  c #595A55",
"J  c #5C5C5A",
"K  c #575854",
"L  c #474A51",
"P  c #596447",
"I  c #5C6554",
"U  c #4F6351",
"Y  c #676848",
"T  c #6C7146",
"R  c #62635D",
"E  c #686B57",
"W  c #7C7456",
"Q  c #756E50",
"!  c #495764",
"~  c #585C69",
"^  c #4A5778",
"/  c #5A626D",
"(  c #646462",
")  c #6A6A65",
"_  c #696A68",
"`  c #6E716B",
"'  c #757568",
"]  c #7A7A75",
"[  c #7C7D7A",
"{  c #767573",
"}  c #6D6C70",
"|  c #625C43",
" . c #833A08",
".. c #AA3E06",
"X. c #8C4107",
"o. c #AA5A0C",
"O. c #B0510A",
"+. c #AF671A",
"@. c #936E2B",
"#. c #DA5507",
"$. c #D1510E",
"%. c #E55B08",
"&. c #D26B11",
"*. c #ED630B",
"=. c #E8630A",
"-. c #F46C0B",
";. c #F66A08",
":. c #FA740B",
">. c #FA7C0D",
",. c #F7720A",
"<. c #F56D11",
"1. c #FA7C12",
"2. c #F47613",
"3. c #E87019",
"4. c #EA6620",
"5. c #867B5A",
"6. c #817941",
"7. c #857C6F",
"8. c #7F807B",
"9. c #FC820E",
"0. c #FC8B0E",
"q. c #FC8513",
"w. c #FC8C14",
"e. c #FC8C19",
"r. c #F88517",
"t. c #FD9415",
"y. c #FD9A17",
"u. c #FC941B",
"i. c #FD9C1C",
"p. c #EA891D",
"a. c #FDA21E",
"s. c #CB8830",
"d. c #FD9D22",
"f. c #FA9625",
"g. c #EC912D",
"h. c #FDA423",
"j. c #FDAA26",
"k. c #FDA52A",
"l. c #FDAC2B",
"z. c #FDB12D",
"x. c #FCB027",
"c. c #FDAD32",
"v. c #FDA936",
"b. c #FDB434",
"n. c #FDB836",
"m. c #FDB53B",
"M. c #FDB93C",
"N. c #DE811D",
"B. c #8C8466",
"V. c #948768",
"C. c #84837B",
"Z. c #988B74",
"A. c #9A9177",
"S. c #A7957A",
"D. c #A18F72",
"F. c #FDB642",
"G. c #FDBB43",
"H. c #FDBD4B",
"J. c #FDBE52",
"K. c #F3AA4B",
"L. c #DEB472",
"P. c #FDC24A",
"I. c #FDC154",
"U. c #FDC35A",
"Y. c #FCC85E",
"T. c #FDD15E",
"R. c #FCCA66",
"E. c #FCD36D",
"W. c #FCD87A",
"Q. c #FCCD74",
"!. c #3E5280",
"~. c #485983",
"^. c #586788",
"/. c #6B738D",
"(. c #7A8396",
"). c #7A89A7",
"_. c #868682",
"`. c #8B8A86",
"'. c #8A8987",
"]. c #948C89",
"[. c #93918D",
"{. c #959286",
"}. c #838B9D",
"|. c #959491",
" X c #999692",
".X c #9D9A96",
"XX c #9E9C9A",
"oX c #8F9296",
"OX c #A79784",
"+X c #A19E9B",
"@X c #A19D96",
"#X c #B39F88",
"$X c #B8A488",
"%X c #A5A29D",
"&X c #A9A49D",
"*X c #BAAA96",
"=X c #B3A995",
"-X c #8C96AA",
";X c #99A3B2",
":X c #A6A3A1",
">X c #A9A6A3",
",X c #ADA9A5",
"<X c #AEAAAA",
"1X c #A4A5AB",
"2X c #B2AEAB",
"3X c #B0ACA7",
"4X c #B7B1AB",
"5X c #B8B5B5",
"6X c #A9B0BA",
"7X c #C8B399",
"8X c #CBB396",
"9X c #C6B8A5",
"0X c #D6BEA2",
"qX c #FCDB88",
"wX c #FAD590",
"eX c #FDEA8F",
"rX c #D8C1A6",
"tX c #DACCAE",
"yX c #E3CEB2",
"uX c #FCEAA5",
"iX c #F4ECB2",
"pX c #DAD191",
"aX c #ACB5C3",
"sX c #B6BDC8",
"dX c #ACB7CA",
"fX c #BBC4D5",
"gX c #BEC1C6",
"hX c #C3C5C9",
"jX c #C7CDD7",
"kX c #D4D7DD",
"lX c #FDFBCA",
"zX c #FDEFC1",
"xX c #D5DBE5",
"cX c #CFD5E1",
"vX c #DDE2E9",
"bX c #E3E6EA",
"nX c #E8ECF0",
"mX c #FBF9E1",
/* pixels */
"h.z.x.w.q.t.r.&.2                                                                                                               ",
"M.M.z.c.m.n.k.q.,.#.2                                                                 = k 5 9 e i y y 3                         ",
"M.l.h.h.j.l.b.k.w.w.r.&.1                                                       = l x b m 7 8 8 m t T 5.7.Q ;                   ",
"G.l.y.a.j.x.z.l.t.l.t.>.:.o.#                                               * l c c v z 9 8 r n m > 8 t Q 5.Q u .               ",
"n.G.l.z.i.i.z.m.z.b.k.r.q.>.=.q                                           j c c c v n 8 ( ) _.^ x b / F 8 e D r x *             ",
"j.l.h.i.i.t.l.H.G.h.h.h.e.>.r.r.+.                                      l c c c c c b b ^ ^.}.}./.}.XX_.( r 7 r N x =           ",
"i.e.i.h.z.l.j.F.H.M.z.x.h.i.t.t.t.&.#                                 l c c c c c c c c c c ;X;X^.6XaX;X'.I r D ~ c x *         ",
"F.M.M.G.G.M.H.J.M.H.b.x.z.M.i.u.r.r.3.1                             l c c c c c c c ^.gX6XC !.}.6XhXfXsXdXoXI E _ B c x         ",
"H.H.H.M.b.G.G.H.F.b.G.z.G.v.a.w.2.>.q.=.<                         - c c c c c c c c c 6XbXtX/.c B 6XjXcXfX-X/ K P /.c c j       ",
"m.F.G.n.z.h.M.G.H.J.H.M.I.E.U.j.z.t.9.1.3.1                     o c c c c c c c c c b -XkXbXbXhXsXaXjXvXxXaX)./ t E ^ c c o     ",
"y.i.b.n.x.l.M.M.d.m.F.G.H.G.I.I.H.M.h.h.y.N.&                   l c c c c c c c c b V }.hXvXvXvXbXcXvXnXnXvXfX;XQ e D B c k     ",
"j.m.G.b.z.b.H.M.z.d.j.z.G.H.G.G.U.G.l.y.k.u.N.#               o c c c c c c c c c } C V /.sXxXvXcXvXnXnXnXnXxXfX] P F B c x     ",
"M.H.H.n.M.h.I.wXU.M.G.H.J.b.h.k.J.H.m.b.b.k.1.s.              L /.b c c c b M c c b c c c B ^.dXjXvXnXnXnXnXvXcX-X^ B c b c *   ",
"l.m.b.b.M.M.R.uXuXP.M.U.I.b.M.G.U.b.l.k.M.v.k.k.@.            OX*XV J v c ! F M c c c c c c !.-XcXxXbXbXnXnXvXxXfX-X^ c c c h   ",
"n.z.F.I.z.l.F.M.R.R.I.M.F.G.G.H.M.h.x.j.b.b.l.f.K.1         @ 7X8X7.5.! ! P N b c c c c c V -X-XcXxXvXvXvXvXxXjX/.C._ c b c l   ",
"G.b.I.G.z.M.H.F.J.H.U.U.P.F.b.z.G.H.l.d.b.c.w.M.l.s.        > 0X8XZ.) f d F c N _ N V c c c ~.~.-XfXxXxXvXxXfX;XC ' 8.V c c l   ",
"b.M.m.F.M.n.m.M.H.F.I.I.n.n.c.k.G.G.m.l.G.F.h.c.n.c.@.      g yXrXOXb I p a F n 7 r E E B c c b /.).;XdXjXfX;X!.I E ' v c c l   ",
"i.l.J.U.R.U.U.I.U.P.I.H.U.J.G.U.R.H.M.H.M.M.M.H.n.m.K..     Y 0X0X7XV F P s m n v n 8 e V c c ~.~.!./.).).^.^.oXY a /./ c c l   ",
"i.n.I.U.J.F.M.F.I.I.H.J.G.F.E.uXzXqXF.M.H.b.n.G.G.P.H.@.    Q rX0X7XB F i a P m n 8 9 m N c ).(.~.B -XfX(.).(.W ' 8._ _ c c k   ",
"F.M.b.n.I.H.l.h.M.F.F.k.j.k.J.J.m.b.h.k.F.m.G.M.h.P.P.3.    Y rX8X].C F d p a e 5 : : z L ! ~.^.(.;XjXfXgX{.[.Y C.C.M C c c h   ",
"G.J.H.l.l.M.h.w.h.M.b.a.a.n.F.z.j.j.x.a.h.G.I.b.i.j.n.f.X.  r tX0X].b H s p a i 6 6 4 4 4 y ' [ ;X5XgX2X.Xa E W E ! c c c c o   ",
"J.J.H.x.j.b.a.t.j.G.G.z.m.G.M.G.M.h.j.x.y.n.b.l.j.j.c.k.O.  % rX0XtX^ N I I f s i 6 4 4 > t a I E ]  XE E u e w 7 N M c c x     ",
"U.Q.Y.M.P.M.n.a.l.H.U.H.U.U.b.l.j.x.j.a.a.a.j.j.c.M.M.d.3.$   D.0XyX'.~ E N I s s s i 6 4 7 w t u e D y e w 7 t P t n x c k     ",
"I.J.W.uXW.I.x.a.b.G.F.F.H.H.J.H.m.j.m.b.n.z.j.t.b.b.l.d.3. .  g 0XyX*X^ A.! U T T P s i 6 w w w w 7 7 7 w y E y w 6 n M c o     ",
"G.G.F.G.H.F.j.k.H.H.F.b.n.z.G.J.J.G.x.n.H.F.G.v.d.i.t.k.f...  % $XyX0X].S.7.Q 5.B.W f a d p e 7 9 5 5 & t E e 6 i e M M k       ",
"l.l.l.n.M.F.H.J.G.n.M.I.M.i.i.H.G.b.l.l.n.l.m.F.F.a.i.d.q.&.    Y 8X].*X0X#XB.~ 8.A.B.5.Q T T a i e 6 7 8 y Q d a N M x .       ",
"b.b.z.l.b.F.J.J.j.b.H.E.F.j.j.M.M.j.j.n.n.n.M.j.b.i.a.j.e.3.#   & 5._.#X0X7XZ.N 9X9X=XS.5.Q W d a P Y Y a W V.V.p v v =         ",
"G.m.n.M.F.J.J.j.t.i.j.F.H.I.M.M.G.z.a.l.b.G.G.n.F.j.i.k.f.m.2     D 7.*X0X9XS.OXS.8X*XS.S.Z.5.5.V.Z.D.V.OX$XB.R N M j           ",
"G.H.qXuXE.H.n.i.i.i.h.m.H.I.n.j.F.x.j.a.n.I.F.a.b.i.b.t.h.v.X.      W OXyX9XOX=X$X$XS.V.B.V.B.V.S.A.OX#X$XV.W ~ c k             ",
"E.E.E.W.R.F.a.i.y.x.z.J.H.z.n.z.n.j.b.k.l.M.G.h.a.n.b.e.q.w.O.      . } ].9X=X].=X$XS.A.&X*X7X9X9X*XOXS.V.Q d N h               ",
"qXuXG.b.b.M.l.j.l.F.M.H.J.H.H.G.b.k.l.H.c.v.m.i.i.h.m.d.t.w.O.          k b ^.^ (.$X$XS.A.4X9X*X=XS.5.d p P n =                 ",
"W.zXE.c.b.n.c.m.Y.I.H.n.b.m.F.M.k.j.i.G.c.b.l.w.e.z.b.b.d.i.O.          . = l c c } S.S.V.A.A.Z.' E y P m k                     ",
"I.W.qXJ.m.d.d.c.U.G.H.F.H.b.j.z.z.h.i.x.h.c.F.j.w.m.c.m.l.j.O.                = l x ) 7.W _ ( ! Y y t , .                       ",
"G.H.m.b.M.l.h.b.F.b.F.I.R.H.c.m.F.v.H.z.u.f.m.j.t.t.e.c.k.h.o.                      * , j j j h =                               ",
"a.t.t.j.M.b.d.x.i.h.h.b.J.F.n.F.H.G.I.n.d.r.l.l.d.w.i.h.j.w.o.                                                                  ",
"G.l.y.i.j.b.j.h.b.n.i.n.I.G.z.a.j.n.z.l.M.m.n.l.i.j.m.k.b.q. .                                                                  ",
"H.H.z.h.a.i.a.F.I.n.j.b.G.H.l.a.l.H.G.h.G.M.G.F.h.j.m.h.u.d.2                     ; R [ 7._._.{ K +                             ",
"b.m.b.M.m.v.R.W.H.l.j.j.n.I.F.M.m.R.M.t.h.G.H.b.w.v.F.t.l.f.X                 ; J [ [ [ |.+X>X>X>X:X_.:                         ",
"M.b.M.n.H.E.qXqXm.b.b.M.M.F.H.G.F.I.F.j.t.m.n.i.w.G.F.d.c.N.              . z S Z K K ( ( {  X%X.XXX>X<X] .                     ",
"G.k.i.i.m.R.J.J.b.l.n.M.F.l.l.j.j.H.G.l.j.j.b.j.k.H.m.e.c.+.            . r S S Z Z G K G } ]..X.X.X%X:X2X X;                   ",
"M.b.h.b.I.H.F.P.G.J.c.h.z.b.h.i.v.R.F.M.j.x.j.h.m.H.b.v.f.@.          . Z G R J G S Z S H { C.[.+X+X>X&X>X2X+X;                 ",
"I.I.I.M.M.H.n.G.H.R.U.l.l.M.e.u.G.F.H.M.i.i.l.z.b.M.m.I.g.X           A } ~ } J G S S S G I [ |.@X:X2X4X+X<X2X+X.               ",
"H.I.I.n.h.z.F.J.b.k.I.F.l.j.q.a.m.H.G.z.h.i.c.l.i.M.M.E.s.          O ) J K J K G G K H I _ {.+X@X@X+X>X,X4X3X5X_.              ",
"M.m.M.h.y.a.G.I.d.k.M.b.h.i.a.t.u.m.c.h.a.a.q.d.y.G.P.uXq           H ] J J K _ ) J R R ( ( [. X+X@X+X&X+X+X4X5X5XA             ",
"J.k.u.j.h.l.z.z.h.M.n.i.w.1.i.a.z.v.l.n.t.i.h.h.l.T.iXpX          . /.E H H G 7._.} H ` [ ] `.|.>X@X@X@X@X&X2X5XgX[.            ",
"G.l.b.H.H.G.n.x.h.F.H.n.j.t.t.M.H.m.b.b.l.j.l.i.n.eXlX6.          ; { H G S S R |.7.) [ `.@X+X>X>X>X>X@X&X3X3X2X4X5X;           ",
"j.b.z.k.H.H.l.l.b.G.k.d.d.w.q.t.e.t.G.d.j.F.v.q.E.lXtX            : _ G Z Z Z R oX] } `. X%X>X%X,X&X%X.X&X,X3X3X3X5X_           ",
"h.h.t.k.m.P.M.l.M.G.z.u.t.9.<.9.1.d.l.t.t.n.d.l.eXmXf             A R H G Z Z } _.] [ _.%X>X,X>X%X&X%X%X&X>X>X2X2X2X'.          ",
"j.e.t.l.l.l.d.h.b.m.z.d.<.*.>.>.w.q.<.9.u.d.u.E.lXL.              Z ) J G G K ( ] } { _.XX>X<X+X%X>X%X%X&X%X3X2X3X2XXX          ",
"x.c.d.t.w.i.i.t.u.h.m.i.<.i.0.q.9.;.>.9.i.w.f.eXiX$               Z ] ( H K I 8.{ ( 7.'.|.>X>X:X>X%X.X%X>X,X3X3X3X5X<X          ",
"1.l.G.m.b.i.w.i.b.H.m.t.9.w.:.9.;.w.w.0.:.2.K.wXq                 : ] } _ I _ ] { ) [ ].[.:X<X>X%X>X%X%X:X%X,X>X3X5X,X          ",
"q.h.b.H.z.a.j.n.m.d.q.>.9.-.*.,.:.0.>.:.%.*.K.o.                  ; ( _ } { _.'.) ` _.|.+X:X+X+X X%X>X%X:X,X,X,X,X2X X          ",
"d.a.j.n.i.t.q.i.j.t.:.:.>.,.%.#.*.:.0.%.%.1.O.                      K G C.`._.` _ ] '.+X:X:X+X X X:X:X<X>X<X,X2X,X2X'.          ",
"t.i.j.a.w.0.w.0.9.;.;.;.;.:.%.$.*.*.%.#.*.&.X                       : S H `.8.{ ` 8.`.|.XX:X:X+X.XXX:X:X>X,X,X3X,X2X_           ",
"i.t.t.y.t.i.a.t.:.;.;.;.;.%.$.$.#.%.;.;.$.#                         . Z K C.`.] ) { `.[.].+X:XXXXX%X%X:X,X,X>X>X,X<X;           ",
"i.w.t.t.j.n.l.w.*.;.>.;.*.%.$.#.#.=.;.$.X                             : S R ] ] ( _ 8.[.[..X.X X X>X>X>X:X,X,X,X2X_.            ",
"i.i.j.h.z.l.i.:.;.>.;.#.#.%.*.:.2.1.O.X                                 R 7.[ [ ` ( _.[.|.%X.X X X+X:X>X2X3X,X>X:X:             ",
"i.h.i.h.j.a.1.-.:.;.%.#.%.;.q.>.2.O.                                    + '.8._.`.'.[.+XXX<X<X:XXX<X<X<X,X>X3X3X)               ",
"t.j.t.e.y.0.<.;.:.;.=.*.*.r.u.p.2                                         ; '. X]. X XXX:X+X>X<X<X5X2X5X3X,X2X{                 ",
"w.0.:.-.:.>.q.1.;.%.*.*.<.r.&.<                                             + ]  X[.C. X:X|.'.oX:X5X5X4X2X4X{                   ",
"t.y.q.q.<.e.f.e.v.1.2.2.=.X.                                                    A `.|.].+X]. X X>X5X5X5XXXA                     ",
"0.>.<.*.*.<.f.e.<.<.2.o.# .                                                         A ) _..X+X>X<X:X'.Z                         ",
"1.1.:.*.4.%.4.%.=.O.<                                                                                                           ",
"4.4.4.$.$.4.$.O.& O O O O O O O O O O O O O O O O O O O O O O O O O O O O O O O O O O O O O O O O O O O O O O O O O O O O O O O "
};
